# Blender 5.2.1 LTS
# www.blender.org
mtllib HollowCylinder.mtl
o Cylinder
v 0.006898 -0.277451 -0.267747
v 0.006898 0.498403 -0.267747
v 0.021185 -0.277451 -0.267057
v 0.021185 0.498403 -0.267057
v 0.035334 -0.277451 -0.264997
v 0.035334 0.498403 -0.264997
v 0.049209 -0.277451 -0.261584
v 0.049209 0.498403 -0.261584
v 0.062676 -0.277451 -0.256853
v 0.062676 0.498403 -0.256853
v 0.075607 -0.277451 -0.250848
v 0.075607 0.498403 -0.250848
v 0.087875 -0.277451 -0.243628
v 0.087875 0.498403 -0.243628
v 0.099364 -0.277451 -0.235262
v 0.099364 0.498403 -0.235262
v 0.109963 -0.277451 -0.225830
v 0.109963 0.498403 -0.225830
v 0.119568 -0.277451 -0.215424
v 0.119568 0.498403 -0.215424
v 0.128089 -0.277451 -0.204143
v 0.128089 0.498403 -0.204143
v 0.135443 -0.277451 -0.192097
v 0.135443 0.498403 -0.192097
v 0.141558 -0.277451 -0.179401
v 0.141558 0.498403 -0.179401
v 0.146377 -0.277451 -0.166178
v 0.146377 0.498403 -0.166178
v 0.149853 -0.277451 -0.152554
v 0.149853 0.498403 -0.152554
v 0.151951 -0.277451 -0.138662
v 0.151951 0.498403 -0.138662
v 0.152653 -0.277451 -0.124635
v 0.152653 0.498403 -0.124635
v 0.151951 -0.277451 -0.110607
v 0.151951 0.498403 -0.110607
v 0.149853 -0.277451 -0.096715
v 0.149853 0.498403 -0.096715
v 0.146377 -0.277451 -0.083091
v 0.146377 0.498403 -0.083091
v 0.141558 -0.277451 -0.069868
v 0.141558 0.498403 -0.069868
v 0.135443 -0.277451 -0.057172
v 0.135443 0.498403 -0.057172
v 0.128089 -0.277451 -0.045126
v 0.128089 0.498403 -0.045126
v 0.119568 -0.277451 -0.033845
v 0.119568 0.498403 -0.033845
v 0.109963 -0.277451 -0.023439
v 0.109963 0.498403 -0.023439
v 0.099364 -0.277451 -0.014008
v 0.099364 0.498403 -0.014008
v 0.087875 -0.277451 -0.005641
v 0.087875 0.498403 -0.005641
v 0.075607 -0.277451 0.001579
v 0.075607 0.498403 0.001579
v 0.062676 -0.277451 0.007584
v 0.062676 0.498403 0.007584
v 0.049209 -0.277451 0.012315
v 0.049209 0.498403 0.012315
v 0.035334 -0.277451 0.015728
v 0.035334 0.498403 0.015728
v 0.021185 -0.277451 0.017788
v 0.021185 0.498403 0.017788
v 0.006898 -0.277451 0.018477
v 0.006898 0.498403 0.018477
v -0.007388 -0.277451 0.017788
v -0.007388 0.498403 0.017788
v -0.021537 -0.277451 0.015728
v -0.021537 0.498403 0.015728
v -0.035412 -0.277451 0.012315
v -0.035412 0.498403 0.012315
v -0.048879 -0.277451 0.007584
v -0.048879 0.498403 0.007584
v -0.061810 -0.277451 0.001579
v -0.061810 0.498403 0.001579
v -0.074079 -0.277451 -0.005641
v -0.074079 0.498403 -0.005641
v -0.085567 -0.277451 -0.014008
v -0.085567 0.498403 -0.014008
v -0.096166 -0.277451 -0.023439
v -0.096166 0.498403 -0.023439
v -0.105771 -0.277451 -0.033845
v -0.105771 0.498403 -0.033845
v -0.114292 -0.277451 -0.045126
v -0.114292 0.498403 -0.045126
v -0.121646 -0.277451 -0.057172
v -0.121646 0.498403 -0.057172
v -0.127761 -0.277451 -0.069868
v -0.127761 0.498403 -0.069868
v -0.132580 -0.277451 -0.083091
v -0.132580 0.498403 -0.083091
v -0.136056 -0.277451 -0.096715
v -0.136056 0.498403 -0.096715
v -0.138154 -0.277451 -0.110607
v -0.138154 0.498403 -0.110607
v -0.138856 -0.277451 -0.124635
v -0.138856 0.498403 -0.124635
v -0.138154 -0.277451 -0.138662
v -0.138154 0.498403 -0.138662
v -0.136056 -0.277451 -0.152554
v -0.136056 0.498403 -0.152554
v -0.132580 -0.277451 -0.166178
v -0.132580 0.498403 -0.166178
v -0.127761 -0.277451 -0.179401
v -0.127761 0.498403 -0.179401
v -0.121646 -0.277451 -0.192097
v -0.121646 0.498403 -0.192097
v -0.114292 -0.277451 -0.204143
v -0.114292 0.498403 -0.204143
v -0.105771 -0.277451 -0.215424
v -0.105771 0.498403 -0.215424
v -0.096166 -0.277451 -0.225830
v -0.096166 0.498403 -0.225830
v -0.085567 -0.277451 -0.235262
v -0.085567 0.498403 -0.235262
v -0.074079 -0.277451 -0.243628
v -0.074079 0.498403 -0.243628
v -0.061810 -0.277451 -0.250848
v -0.061810 0.498403 -0.250848
v -0.048879 -0.277451 -0.256853
v -0.048879 0.498403 -0.256853
v -0.035412 -0.277451 -0.261584
v -0.035412 0.498403 -0.261584
v -0.021537 -0.277451 -0.264997
v -0.021537 0.498403 -0.264997
v -0.007388 -0.277451 -0.267057
v -0.007388 0.498403 -0.267057
v 0.112577 0.286731 -0.263015
v 0.006898 -0.277451 -0.252069
v 0.006898 0.498403 -0.252069
v 0.019289 -0.277451 -0.251471
v 0.019289 0.498403 -0.251471
v 0.031571 -0.277451 -0.249682
v 0.031571 0.498403 -0.249682
v 0.043636 -0.277451 -0.246714
v 0.043636 0.498403 -0.246714
v 0.055377 -0.277451 -0.242589
v 0.055377 0.498403 -0.242589
v 0.066685 -0.277451 -0.237337
v 0.066685 0.498403 -0.237337
v 0.077452 -0.277451 -0.231000
v 0.077452 0.498403 -0.231000
v 0.087571 -0.277451 -0.223630
v 0.087571 0.498403 -0.223630
v 0.096941 -0.277451 -0.215290
v 0.096941 0.498403 -0.215290
v 0.105465 -0.277451 -0.206055
v 0.105465 0.498403 -0.206055
v 0.113051 -0.277451 -0.196010
v 0.113051 0.498403 -0.196010
v 0.119619 -0.277451 -0.185251
v 0.119619 0.498403 -0.185251
v 0.125095 -0.277451 -0.173881
v 0.125095 0.498403 -0.173881
v 0.129419 -0.277451 -0.162014
v 0.129419 0.498403 -0.162014
v 0.132543 -0.277451 -0.149767
v 0.132543 0.498403 -0.149767
v 0.134432 -0.277451 -0.137265
v 0.134432 0.498403 -0.137265
v 0.135063 -0.277451 -0.124635
v 0.135063 0.498403 -0.124635
v 0.134432 -0.277451 -0.112004
v 0.134432 0.498403 -0.112004
v 0.132543 -0.277451 -0.099502
v 0.132543 0.498403 -0.099502
v 0.129419 -0.277451 -0.087255
v 0.129419 0.498403 -0.087255
v 0.125095 -0.277451 -0.075388
v 0.125095 0.498403 -0.075388
v 0.119619 -0.277451 -0.064018
v 0.119619 0.498403 -0.064018
v 0.113051 -0.277451 -0.053259
v 0.113051 0.498403 -0.053259
v 0.105465 -0.277451 -0.043214
v 0.105465 0.498403 -0.043214
v 0.096941 -0.277451 -0.033979
v 0.096941 0.498403 -0.033979
v 0.087571 -0.277451 -0.025640
v 0.087571 0.498403 -0.025640
v 0.077452 -0.277451 -0.018270
v 0.077452 0.498403 -0.018270
v 0.066685 -0.277451 -0.011932
v 0.066685 0.498403 -0.011932
v 0.055377 -0.277451 -0.006681
v 0.055377 0.498403 -0.006681
v 0.043636 -0.277451 -0.002555
v 0.043636 0.498403 -0.002555
v 0.031571 -0.277451 0.000413
v 0.031571 0.498403 0.000413
v 0.019289 -0.277451 0.002202
v 0.019289 0.498403 0.002202
v 0.006898 -0.277451 0.002800
v 0.006898 0.498403 0.002800
v -0.005492 -0.277451 0.002202
v -0.005492 0.498403 0.002202
v -0.017774 -0.277451 0.000413
v -0.017774 0.498403 0.000413
v -0.029839 -0.277451 -0.002555
v -0.029839 0.498403 -0.002555
v -0.041580 -0.277451 -0.006681
v -0.041580 0.498403 -0.006681
v -0.052888 -0.277451 -0.011932
v -0.052888 0.498403 -0.011932
v -0.063655 -0.277451 -0.018270
v -0.063655 0.498403 -0.018270
v -0.073774 -0.277451 -0.025640
v -0.073774 0.498403 -0.025640
v -0.083144 -0.277451 -0.033979
v -0.083144 0.498403 -0.033979
v -0.091668 -0.277451 -0.043214
v -0.091668 0.498403 -0.043214
v -0.099254 -0.277451 -0.053259
v -0.099254 0.498403 -0.053259
v -0.105822 -0.277451 -0.064018
v -0.105822 0.498403 -0.064018
v -0.111298 -0.277451 -0.075388
v -0.111298 0.498403 -0.075388
v -0.115622 -0.277451 -0.087255
v -0.115622 0.498403 -0.087255
v -0.118746 -0.277451 -0.099502
v -0.118746 0.498403 -0.099502
v -0.120635 -0.277451 -0.112004
v -0.120635 0.498403 -0.112004
v -0.121266 -0.277451 -0.124635
v -0.121266 0.498403 -0.124635
v -0.120635 -0.277451 -0.137265
v -0.120635 0.498403 -0.137265
v -0.118746 -0.277451 -0.149767
v -0.118746 0.498403 -0.149767
v -0.115622 -0.277451 -0.162014
v -0.115622 0.498403 -0.162014
v -0.111298 -0.277451 -0.173881
v -0.111298 0.498403 -0.173881
v -0.105822 -0.277451 -0.185251
v -0.105822 0.498403 -0.185251
v -0.099254 -0.277451 -0.196010
v -0.099254 0.498403 -0.196010
v -0.091668 -0.277451 -0.206055
v -0.091668 0.498403 -0.206055
v -0.083144 -0.277451 -0.215290
v -0.083144 0.498403 -0.215290
v -0.073774 -0.277451 -0.223630
v -0.073774 0.498403 -0.223630
v -0.063655 -0.277451 -0.231000
v -0.063655 0.498403 -0.231000
v -0.052888 -0.277451 -0.237337
v -0.052888 0.498403 -0.237337
v -0.041580 -0.277451 -0.242589
v -0.041580 0.498403 -0.242589
v -0.029839 -0.277451 -0.246714
v -0.029839 0.498403 -0.246714
v -0.017774 -0.277451 -0.249682
v -0.017774 0.498403 -0.249682
v -0.005492 -0.277451 -0.251471
v -0.005492 0.498403 -0.251471
v 0.104786 0.273737 -0.252814
vn 0.0482 -0.0000 -0.9988
vn 0.1441 -0.0000 -0.9896
vn 0.2388 -0.0000 -0.9711
vn 0.3315 -0.0000 -0.9435
vn 0.4212 -0.0000 -0.9070
vn 0.5072 -0.0000 -0.8618
vn 0.5887 -0.0000 -0.8084
vn 0.6648 -0.0000 -0.7470
vn 0.7348 -0.0000 -0.6783
vn 0.7979 -0.0000 -0.6027
vn 0.8535 -0.0000 -0.5210
vn 0.9009 -0.0000 -0.4340
vn 0.9396 -0.0000 -0.3424
vn 0.9690 -0.0000 -0.2472
vn 0.9888 -0.0000 -0.1494
vn 0.9988 -0.0000 -0.0500
vn 0.9988 -0.0000 0.0500
vn 0.9888 -0.0000 0.1494
vn 0.9690 -0.0000 0.2472
vn 0.9396 -0.0000 0.3424
vn 0.9009 -0.0000 0.4340
vn 0.8535 -0.0000 0.5210
vn 0.7979 -0.0000 0.6027
vn 0.7348 -0.0000 0.6783
vn 0.6648 -0.0000 0.7470
vn 0.5887 -0.0000 0.8084
vn 0.5072 -0.0000 0.8618
vn 0.4212 -0.0000 0.9070
vn 0.3315 -0.0000 0.9435
vn 0.2388 -0.0000 0.9711
vn 0.1441 -0.0000 0.9896
vn 0.0482 -0.0000 0.9988
vn -0.0482 -0.0000 0.9988
vn -0.1441 -0.0000 0.9896
vn -0.2388 -0.0000 0.9711
vn -0.3315 -0.0000 0.9435
vn -0.4212 -0.0000 0.9070
vn -0.5072 -0.0000 0.8618
vn -0.5887 -0.0000 0.8084
vn -0.6648 -0.0000 0.7470
vn -0.7348 -0.0000 0.6783
vn -0.7979 -0.0000 0.6027
vn -0.8535 -0.0000 0.5210
vn -0.9009 -0.0000 0.4340
vn -0.9396 -0.0000 0.3424
vn -0.9690 -0.0000 0.2472
vn -0.9888 -0.0000 0.1494
vn -0.9988 -0.0000 0.0500
vn -0.9988 -0.0000 -0.0500
vn -0.9888 -0.0000 -0.1494
vn -0.9690 -0.0000 -0.2472
vn -0.9396 -0.0000 -0.3424
vn -0.9009 -0.0000 -0.4340
vn -0.8535 -0.0000 -0.5210
vn -0.7979 -0.0000 -0.6027
vn -0.7348 -0.0000 -0.6783
vn -0.6648 -0.0000 -0.7470
vn -0.5887 -0.0000 -0.8084
vn -0.5072 -0.0000 -0.8618
vn -0.4212 -0.0000 -0.9070
vn -0.3315 -0.0000 -0.9435
vn -0.2388 -0.0000 -0.9711
vn -0.1441 -0.0000 -0.9896
vn -0.0482 -0.0000 -0.9988
vn -0.2389 -0.0000 0.9711
vn -0.5887 -0.0000 0.8083
vn -0.7348 -0.0000 0.6782
vn -0.7980 -0.0000 0.6027
vn -0.8536 -0.0000 0.5210
vn -0.9009 -0.0000 0.4339
vn -0.9009 -0.0000 -0.4339
vn -0.8536 -0.0000 -0.5210
vn -0.7980 -0.0000 -0.6027
vn -0.7348 -0.0000 -0.6782
vn -0.5887 -0.0000 -0.8083
vn -0.2389 -0.0000 -0.9711
vn 0.2389 -0.0000 -0.9711
vn 0.5887 -0.0000 -0.8083
vn 0.7348 -0.0000 -0.6782
vn 0.7980 -0.0000 -0.6027
vn 0.8536 -0.0000 -0.5210
vn 0.9009 -0.0000 -0.4339
vn 0.9009 -0.0000 0.4339
vn 0.8536 -0.0000 0.5210
vn 0.7980 -0.0000 0.6027
vn 0.7348 -0.0000 0.6782
vn 0.5887 -0.0000 0.8083
vn 0.2389 -0.0000 0.9711
vn -0.0000 -1.0000 -0.0000
vn -0.0000 1.0000 -0.0000
vt 1.000000 0.500000
vt 1.000000 1.000000
vt 0.984375 1.000000
vt 0.984375 0.500000
vt 0.968750 1.000000
vt 0.968750 0.500000
vt 0.953125 1.000000
vt 0.953125 0.500000
vt 0.937500 1.000000
vt 0.937500 0.500000
vt 0.921875 1.000000
vt 0.921875 0.500000
vt 0.906250 1.000000
vt 0.906250 0.500000
vt 0.890625 1.000000
vt 0.890625 0.500000
vt 0.875000 1.000000
vt 0.875000 0.500000
vt 0.859375 1.000000
vt 0.859375 0.500000
vt 0.843750 1.000000
vt 0.843750 0.500000
vt 0.828125 1.000000
vt 0.828125 0.500000
vt 0.812500 1.000000
vt 0.812500 0.500000
vt 0.796875 1.000000
vt 0.796875 0.500000
vt 0.781250 1.000000
vt 0.781250 0.500000
vt 0.765625 1.000000
vt 0.765625 0.500000
vt 0.750000 1.000000
vt 0.750000 0.500000
vt 0.734375 1.000000
vt 0.734375 0.500000
vt 0.718750 1.000000
vt 0.718750 0.500000
vt 0.703125 1.000000
vt 0.703125 0.500000
vt 0.687500 1.000000
vt 0.687500 0.500000
vt 0.671875 1.000000
vt 0.671875 0.500000
vt 0.656250 1.000000
vt 0.656250 0.500000
vt 0.640625 1.000000
vt 0.640625 0.500000
vt 0.625000 1.000000
vt 0.625000 0.500000
vt 0.609375 1.000000
vt 0.609375 0.500000
vt 0.593750 1.000000
vt 0.593750 0.500000
vt 0.578125 1.000000
vt 0.578125 0.500000
vt 0.562500 1.000000
vt 0.562500 0.500000
vt 0.546875 1.000000
vt 0.546875 0.500000
vt 0.531250 1.000000
vt 0.531250 0.500000
vt 0.515625 1.000000
vt 0.515625 0.500000
vt 0.500000 1.000000
vt 0.500000 0.500000
vt 0.484375 1.000000
vt 0.484375 0.500000
vt 0.468750 1.000000
vt 0.468750 0.500000
vt 0.453125 1.000000
vt 0.453125 0.500000
vt 0.437500 1.000000
vt 0.437500 0.500000
vt 0.421875 1.000000
vt 0.421875 0.500000
vt 0.406250 1.000000
vt 0.406250 0.500000
vt 0.390625 1.000000
vt 0.390625 0.500000
vt 0.375000 1.000000
vt 0.375000 0.500000
vt 0.359375 1.000000
vt 0.359375 0.500000
vt 0.343750 1.000000
vt 0.343750 0.500000
vt 0.328125 1.000000
vt 0.328125 0.500000
vt 0.312500 1.000000
vt 0.312500 0.500000
vt 0.296875 1.000000
vt 0.296875 0.500000
vt 0.281250 1.000000
vt 0.281250 0.500000
vt 0.265625 1.000000
vt 0.265625 0.500000
vt 0.250000 1.000000
vt 0.250000 0.500000
vt 0.234375 1.000000
vt 0.234375 0.500000
vt 0.218750 1.000000
vt 0.218750 0.500000
vt 0.203125 1.000000
vt 0.203125 0.500000
vt 0.187500 1.000000
vt 0.187500 0.500000
vt 0.171875 1.000000
vt 0.171875 0.500000
vt 0.156250 1.000000
vt 0.156250 0.500000
vt 0.140625 1.000000
vt 0.140625 0.500000
vt 0.125000 1.000000
vt 0.125000 0.500000
vt 0.109375 1.000000
vt 0.109375 0.500000
vt 0.093750 1.000000
vt 0.093750 0.500000
vt 0.078125 1.000000
vt 0.078125 0.500000
vt 0.062500 1.000000
vt 0.062500 0.500000
vt 0.046875 1.000000
vt 0.046875 0.500000
vt 0.031250 1.000000
vt 0.031250 0.500000
vt 0.015625 1.000000
vt 0.015625 0.500000
vt 0.000000 1.000000
vt 0.000000 0.500000
s 0
f 1/1/1 2/2/1 4/3/1 3/4/1
f 3/4/2 4/3/2 6/5/2 5/6/2
f 5/6/3 6/5/3 8/7/3 7/8/3
f 7/8/4 8/7/4 10/9/4 9/10/4
f 9/10/5 10/9/5 12/11/5 11/12/5
f 11/12/6 12/11/6 14/13/6 13/14/6
f 13/14/7 14/13/7 16/15/7 15/16/7
f 15/16/8 16/15/8 18/17/8 17/18/8
f 17/18/9 18/17/9 20/19/9 19/20/9
f 19/20/10 20/19/10 22/21/10 21/22/10
f 21/22/11 22/21/11 24/23/11 23/24/11
f 23/24/12 24/23/12 26/25/12 25/26/12
f 25/26/13 26/25/13 28/27/13 27/28/13
f 27/28/14 28/27/14 30/29/14 29/30/14
f 29/30/15 30/29/15 32/31/15 31/32/15
f 31/32/16 32/31/16 34/33/16 33/34/16
f 33/34/17 34/33/17 36/35/17 35/36/17
f 35/36/18 36/35/18 38/37/18 37/38/18
f 37/38/19 38/37/19 40/39/19 39/40/19
f 39/40/20 40/39/20 42/41/20 41/42/20
f 41/42/21 42/41/21 44/43/21 43/44/21
f 43/44/22 44/43/22 46/45/22 45/46/22
f 45/46/23 46/45/23 48/47/23 47/48/23
f 47/48/24 48/47/24 50/49/24 49/50/24
f 49/50/25 50/49/25 52/51/25 51/52/25
f 51/52/26 52/51/26 54/53/26 53/54/26
f 53/54/27 54/53/27 56/55/27 55/56/27
f 55/56/28 56/55/28 58/57/28 57/58/28
f 57/58/29 58/57/29 60/59/29 59/60/29
f 59/60/30 60/59/30 62/61/30 61/62/30
f 61/62/31 62/61/31 64/63/31 63/64/31
f 63/64/32 64/63/32 66/65/32 65/66/32
f 65/66/33 66/65/33 68/67/33 67/68/33
f 67/68/34 68/67/34 70/69/34 69/70/34
f 69/70/35 70/69/35 72/71/35 71/72/35
f 71/72/36 72/71/36 74/73/36 73/74/36
f 73/74/37 74/73/37 76/75/37 75/76/37
f 75/76/38 76/75/38 78/77/38 77/78/38
f 77/78/39 78/77/39 80/79/39 79/80/39
f 79/80/40 80/79/40 82/81/40 81/82/40
f 81/82/41 82/81/41 84/83/41 83/84/41
f 83/84/42 84/83/42 86/85/42 85/86/42
f 85/86/43 86/85/43 88/87/43 87/88/43
f 87/88/44 88/87/44 90/89/44 89/90/44
f 89/90/45 90/89/45 92/91/45 91/92/45
f 91/92/46 92/91/46 94/93/46 93/94/46
f 93/94/47 94/93/47 96/95/47 95/96/47
f 95/96/48 96/95/48 98/97/48 97/98/48
f 97/98/49 98/97/49 100/99/49 99/100/49
f 99/100/50 100/99/50 102/101/50 101/102/50
f 101/102/51 102/101/51 104/103/51 103/104/51
f 103/104/52 104/103/52 106/105/52 105/106/52
f 105/106/53 106/105/53 108/107/53 107/108/53
f 107/108/54 108/107/54 110/109/54 109/110/54
f 109/110/55 110/109/55 112/111/55 111/112/55
f 111/112/56 112/111/56 114/113/56 113/114/56
f 113/114/57 114/113/57 116/115/57 115/116/57
f 115/116/58 116/115/58 118/117/58 117/118/58
f 117/118/59 118/117/59 120/119/59 119/120/59
f 119/120/60 120/119/60 122/121/60 121/122/60
f 121/122/61 122/121/61 124/123/61 123/124/61
f 123/124/62 124/123/62 126/125/62 125/126/62
f 125/126/63 126/125/63 128/127/63 127/128/63
f 127/128/64 128/127/64 2/129/64 1/130/64
f 130/1/33 132/4/33 133/3/33 131/2/33
f 132/4/34 134/6/34 135/5/34 133/3/34
f 134/6/65 136/8/65 137/7/65 135/5/65
f 136/8/36 138/10/36 139/9/36 137/7/36
f 138/10/37 140/12/37 141/11/37 139/9/37
f 140/12/38 142/14/38 143/13/38 141/11/38
f 142/14/66 144/16/66 145/15/66 143/13/66
f 144/16/40 146/18/40 147/17/40 145/15/40
f 146/18/67 148/20/67 149/19/67 147/17/67
f 148/20/68 150/22/68 151/21/68 149/19/68
f 150/22/69 152/24/69 153/23/69 151/21/69
f 152/24/70 154/26/70 155/25/70 153/23/70
f 154/26/45 156/28/45 157/27/45 155/25/45
f 156/28/46 158/30/46 159/29/46 157/27/46
f 158/30/47 160/32/47 161/31/47 159/29/47
f 160/32/48 162/34/48 163/33/48 161/31/48
f 162/34/49 164/36/49 165/35/49 163/33/49
f 164/36/50 166/38/50 167/37/50 165/35/50
f 166/38/51 168/40/51 169/39/51 167/37/51
f 168/40/52 170/42/52 171/41/52 169/39/52
f 170/42/71 172/44/71 173/43/71 171/41/71
f 172/44/72 174/46/72 175/45/72 173/43/72
f 174/46/73 176/48/73 177/47/73 175/45/73
f 176/48/74 178/50/74 179/49/74 177/47/74
f 178/50/57 180/52/57 181/51/57 179/49/57
f 180/52/75 182/54/75 183/53/75 181/51/75
f 182/54/59 184/56/59 185/55/59 183/53/59
f 184/56/60 186/58/60 187/57/60 185/55/60
f 186/58/61 188/60/61 189/59/61 187/57/61
f 188/60/76 190/62/76 191/61/76 189/59/76
f 190/62/63 192/64/63 193/63/63 191/61/63
f 192/64/64 194/66/64 195/65/64 193/63/64
f 194/66/1 196/68/1 197/67/1 195/65/1
f 196/68/2 198/70/2 199/69/2 197/67/2
f 198/70/77 200/72/77 201/71/77 199/69/77
f 200/72/4 202/74/4 203/73/4 201/71/4
f 202/74/5 204/76/5 205/75/5 203/73/5
f 204/76/6 206/78/6 207/77/6 205/75/6
f 206/78/78 208/80/78 209/79/78 207/77/78
f 208/80/8 210/82/8 211/81/8 209/79/8
f 210/82/79 212/84/79 213/83/79 211/81/79
f 212/84/80 214/86/80 215/85/80 213/83/80
f 214/86/81 216/88/81 217/87/81 215/85/81
f 216/88/82 218/90/82 219/89/82 217/87/82
f 218/90/13 220/92/13 221/91/13 219/89/13
f 220/92/14 222/94/14 223/93/14 221/91/14
f 222/94/15 224/96/15 225/95/15 223/93/15
f 224/96/16 226/98/16 227/97/16 225/95/16
f 226/98/17 228/100/17 229/99/17 227/97/17
f 228/100/18 230/102/18 231/101/18 229/99/18
f 230/102/19 232/104/19 233/103/19 231/101/19
f 232/104/20 234/106/20 235/105/20 233/103/20
f 234/106/83 236/108/83 237/107/83 235/105/83
f 236/108/84 238/110/84 239/109/84 237/107/84
f 238/110/85 240/112/85 241/111/85 239/109/85
f 240/112/86 242/114/86 243/113/86 241/111/86
f 242/114/25 244/116/25 245/115/25 243/113/25
f 244/116/87 246/118/87 247/117/87 245/115/87
f 246/118/27 248/120/27 249/119/27 247/117/27
f 248/120/28 250/122/28 251/121/28 249/119/28
f 250/122/29 252/124/29 253/123/29 251/121/29
f 252/124/88 254/126/88 255/125/88 253/123/88
f 254/126/31 256/128/31 257/127/31 255/125/31
f 256/128/32 130/130/32 131/129/32 257/127/32
f 1/1/89 3/4/89 132/4/89 130/1/89
f 4/3/90 2/2/90 131/2/90 133/3/90
f 3/4/89 5/6/89 134/6/89 132/4/89
f 6/5/90 4/3/90 133/3/90 135/5/90
f 5/6/89 7/8/89 136/8/89 134/6/89
f 8/7/90 6/5/90 135/5/90 137/7/90
f 7/8/89 9/10/89 138/10/89 136/8/89
f 10/9/90 8/7/90 137/7/90 139/9/90
f 9/10/89 11/12/89 140/12/89 138/10/89
f 12/11/90 10/9/90 139/9/90 141/11/90
f 11/12/89 13/14/89 142/14/89 140/12/89
f 14/13/90 12/11/90 141/11/90 143/13/90
f 13/14/89 15/16/89 144/16/89 142/14/89
f 16/15/90 14/13/90 143/13/90 145/15/90
f 15/16/89 17/18/89 146/18/89 144/16/89
f 18/17/90 16/15/90 145/15/90 147/17/90
f 17/18/89 19/20/89 148/20/89 146/18/89
f 20/19/90 18/17/90 147/17/90 149/19/90
f 19/20/89 21/22/89 150/22/89 148/20/89
f 22/21/90 20/19/90 149/19/90 151/21/90
f 21/22/89 23/24/89 152/24/89 150/22/89
f 24/23/90 22/21/90 151/21/90 153/23/90
f 23/24/89 25/26/89 154/26/89 152/24/89
f 26/25/90 24/23/90 153/23/90 155/25/90
f 25/26/89 27/28/89 156/28/89 154/26/89
f 28/27/90 26/25/90 155/25/90 157/27/90
f 27/28/89 29/30/89 158/30/89 156/28/89
f 30/29/90 28/27/90 157/27/90 159/29/90
f 29/30/89 31/32/89 160/32/89 158/30/89
f 32/31/90 30/29/90 159/29/90 161/31/90
f 31/32/89 33/34/89 162/34/89 160/32/89
f 34/33/90 32/31/90 161/31/90 163/33/90
f 33/34/89 35/36/89 164/36/89 162/34/89
f 36/35/90 34/33/90 163/33/90 165/35/90
f 35/36/89 37/38/89 166/38/89 164/36/89
f 38/37/90 36/35/90 165/35/90 167/37/90
f 37/38/89 39/40/89 168/40/89 166/38/89
f 40/39/90 38/37/90 167/37/90 169/39/90
f 39/40/89 41/42/89 170/42/89 168/40/89
f 42/41/90 40/39/90 169/39/90 171/41/90
f 41/42/89 43/44/89 172/44/89 170/42/89
f 44/43/90 42/41/90 171/41/90 173/43/90
f 43/44/89 45/46/89 174/46/89 172/44/89
f 46/45/90 44/43/90 173/43/90 175/45/90
f 45/46/89 47/48/89 176/48/89 174/46/89
f 48/47/90 46/45/90 175/45/90 177/47/90
f 47/48/89 49/50/89 178/50/89 176/48/89
f 50/49/90 48/47/90 177/47/90 179/49/90
f 49/50/89 51/52/89 180/52/89 178/50/89
f 52/51/90 50/49/90 179/49/90 181/51/90
f 51/52/89 53/54/89 182/54/89 180/52/89
f 54/53/90 52/51/90 181/51/90 183/53/90
f 53/54/89 55/56/89 184/56/89 182/54/89
f 56/55/90 54/53/90 183/53/90 185/55/90
f 55/56/89 57/58/89 186/58/89 184/56/89
f 58/57/90 56/55/90 185/55/90 187/57/90
f 57/58/89 59/60/89 188/60/89 186/58/89
f 60/59/90 58/57/90 187/57/90 189/59/90
f 59/60/89 61/62/89 190/62/89 188/60/89
f 62/61/90 60/59/90 189/59/90 191/61/90
f 61/62/89 63/64/89 192/64/89 190/62/89
f 64/63/90 62/61/90 191/61/90 193/63/90
f 63/64/89 65/66/89 194/66/89 192/64/89
f 66/65/90 64/63/90 193/63/90 195/65/90
f 65/66/89 67/68/89 196/68/89 194/66/89
f 68/67/90 66/65/90 195/65/90 197/67/90
f 67/68/89 69/70/89 198/70/89 196/68/89
f 70/69/90 68/67/90 197/67/90 199/69/90
f 69/70/89 71/72/89 200/72/89 198/70/89
f 72/71/90 70/69/90 199/69/90 201/71/90
f 71/72/89 73/74/89 202/74/89 200/72/89
f 74/73/90 72/71/90 201/71/90 203/73/90
f 73/74/89 75/76/89 204/76/89 202/74/89
f 76/75/90 74/73/90 203/73/90 205/75/90
f 75/76/89 77/78/89 206/78/89 204/76/89
f 78/77/90 76/75/90 205/75/90 207/77/90
f 77/78/89 79/80/89 208/80/89 206/78/89
f 80/79/90 78/77/90 207/77/90 209/79/90
f 79/80/89 81/82/89 210/82/89 208/80/89
f 82/81/90 80/79/90 209/79/90 211/81/90
f 81/82/89 83/84/89 212/84/89 210/82/89
f 84/83/90 82/81/90 211/81/90 213/83/90
f 83/84/89 85/86/89 214/86/89 212/84/89
f 86/85/90 84/83/90 213/83/90 215/85/90
f 85/86/89 87/88/89 216/88/89 214/86/89
f 88/87/90 86/85/90 215/85/90 217/87/90
f 87/88/89 89/90/89 218/90/89 216/88/89
f 90/89/90 88/87/90 217/87/90 219/89/90
f 89/90/89 91/92/89 220/92/89 218/90/89
f 92/91/90 90/89/90 219/89/90 221/91/90
f 91/92/89 93/94/89 222/94/89 220/92/89
f 94/93/90 92/91/90 221/91/90 223/93/90
f 93/94/89 95/96/89 224/96/89 222/94/89
f 96/95/90 94/93/90 223/93/90 225/95/90
f 95/96/89 97/98/89 226/98/89 224/96/89
f 98/97/90 96/95/90 225/95/90 227/97/90
f 97/98/89 99/100/89 228/100/89 226/98/89
f 100/99/90 98/97/90 227/97/90 229/99/90
f 99/100/89 101/102/89 230/102/89 228/100/89
f 102/101/90 100/99/90 229/99/90 231/101/90
f 101/102/89 103/104/89 232/104/89 230/102/89
f 104/103/90 102/101/90 231/101/90 233/103/90
f 103/104/89 105/106/89 234/106/89 232/104/89
f 106/105/90 104/103/90 233/103/90 235/105/90
f 105/106/89 107/108/89 236/108/89 234/106/89
f 108/107/90 106/105/90 235/105/90 237/107/90
f 107/108/89 109/110/89 238/110/89 236/108/89
f 110/109/90 108/107/90 237/107/90 239/109/90
f 109/110/89 111/112/89 240/112/89 238/110/89
f 112/111/90 110/109/90 239/109/90 241/111/90
f 111/112/89 113/114/89 242/114/89 240/112/89
f 114/113/90 112/111/90 241/111/90 243/113/90
f 113/114/89 115/116/89 244/116/89 242/114/89
f 116/115/90 114/113/90 243/113/90 245/115/90
f 115/116/89 117/118/89 246/118/89 244/116/89
f 118/117/90 116/115/90 245/115/90 247/117/90
f 117/118/89 119/120/89 248/120/89 246/118/89
f 120/119/90 118/117/90 247/117/90 249/119/90
f 119/120/89 121/122/89 250/122/89 248/120/89
f 122/121/90 120/119/90 249/119/90 251/121/90
f 121/122/89 123/124/89 252/124/89 250/122/89
f 124/123/90 122/121/90 251/121/90 253/123/90
f 123/124/89 125/126/89 254/126/89 252/124/89
f 126/125/90 124/123/90 253/123/90 255/125/90
f 125/126/89 127/128/89 256/128/89 254/126/89
f 128/127/90 126/125/90 255/125/90 257/127/90
f 127/128/89 1/130/89 130/130/89 256/128/89
f 2/129/90 128/127/90 257/127/90 131/129/90
